RJogging_XZ.mot
version=1
datacolumns 20
datarows 25
range 1.590000 1.830000
inDegrees=yes
endheader
time	pelvis_tilt	pelvis_list	pelvis_rotation	hip_flexion_r	hip_adduction_r	hip_rotation_r	knee_angle_r	ankle_angle_r	hip_flexion_l	hip_adduction_l	hip_rotation_l	knee_angle_l	ankle_angle_l	pelvis_tx	pelvis_ty	pelvis_tz	lumbar_bending	lumbar_rotation	lumbar_extension
1.590000	-14.862787	2.082625	0.815148	0.678696	-2.582866	-2.577242	-58.504422	-16.644378	35.935119	3.699819	0.190108	-21.417638	4.933900	1.750061	0.942731	0.002677	-0.000000	-0.000000	0.000000
1.600000	-14.846117	2.629483	0.417678	2.786990	-3.469183	-2.658050	-62.354580	-14.197843	36.440603	4.002698	-0.039516	-25.378165	6.125711	1.775564	0.936406	0.001025	-0.000000	-0.000000	0.000000
1.610000	-14.883656	3.184272	-0.051142	5.135547	-4.343773	-2.695427	-65.989824	-11.681505	36.887288	4.286529	-0.274673	-29.266773	7.901313	1.800708	0.930384	-0.000624	-0.000000	-0.000000	0.000000
1.620000	-14.958081	3.707399	-0.577791	7.691229	-5.139206	-2.706840	-69.314120	-9.189567	37.154545	4.516267	-0.518084	-32.852260	10.090403	1.825569	0.924932	-0.002197	-0.000000	-0.000000	0.000000
1.630000	-15.038401	4.162460	-1.127817	10.392590	-5.800020	-2.721832	-72.226846	-6.824688	37.117645	4.675180	-0.777927	-35.925173	12.468338	1.850204	0.920308	-0.003634	-0.000000	-0.000000	0.000000
1.640000	-15.089413	4.518226	-1.651203	13.160224	-6.286220	-2.774414	-74.635899	-4.691615	36.671288	4.764027	-1.065951	-38.325817	14.802715	1.874648	0.916733	-0.004894	-0.000000	-0.000000	0.000000
1.650000	-15.090378	4.746568	-2.097833	15.920632	-6.567190	-2.891464	-76.466363	-2.883463	35.757471	4.786900	-1.399217	-39.959538	16.885955	1.898933	0.914374	-0.005965	-0.000000	-0.000000	0.000000
1.660000	-15.045814	4.817763	-2.434263	18.622380	-6.610882	-3.079231	-77.661354	-1.470296	34.379923	4.732546	-1.801202	-40.800472	18.553687	1.923103	0.913333	-0.006856	-0.000000	-0.000000	0.000000
1.670000	-14.976634	4.697596	-2.652885	21.228775	-6.378429	-3.316153	-78.176290	-0.484394	32.592159	4.564965	-2.295564	-40.884837	19.690428	1.947214	0.913654	-0.007599	-0.000000	-0.000000	0.000000
1.680000	-14.905546	4.351567	-2.773539	23.703523	-5.829421	-3.556939	-77.973368	0.102489	30.473922	4.228703	-2.897276	-40.295458	20.225217	1.971338	0.915334	-0.008235	-0.000000	-0.000000	0.000000
1.690000	-14.849037	3.754443	-2.837738	26.003719	-4.934347	-3.748918	-77.020462	0.391891	28.111335	3.665892	-3.607055	-39.143574	20.125653	1.995570	0.918324	-0.008808	-0.000000	-0.000000	0.000000
1.700000	-14.812027	2.901769	-2.894471	28.075850	-3.691337	-3.854644	-75.294940	0.539174	25.579108	2.841043	-4.408399	-37.552130	19.395434	2.020024	0.922521	-0.009361	-0.000000	-0.000000	0.000000
1.710000	-14.784034	1.822849	-2.982914	29.856325	-2.143657	-3.865218	-72.793018	0.706118	22.925736	1.766958	-5.267647	-35.639468	18.070608	2.044828	0.927748	-0.009919	-0.000000	-0.000000	0.000000
1.720000	-14.740275	0.589653	-3.119855	31.281118	-0.388036	-3.792454	-69.539686	1.012409	20.169028	0.520031	-6.137210	-33.504777	16.207872	2.070120	0.933748	-0.010478	-0.000000	-0.000000	0.000000
1.730000	-14.648366	-0.686726	-3.296896	32.300239	1.434712	-3.646114	-65.588121	1.507997	17.305229	-0.765211	-6.959731	-31.220868	13.866297	2.096042	0.940185	-0.010994	-0.000000	-0.000000	0.000000
1.740000	-14.479862	-1.874405	-3.488203	32.890500	3.166093	-3.418925	-61.003258	2.174458	14.328797	-1.924227	-7.669841	-28.838476	11.094613	2.122755	0.946687	-0.011400	-0.000000	-0.000000	0.000000
1.750000	-14.225008	-2.849447	-3.663997	33.064941	4.664160	-3.094471	-55.837708	2.945705	11.256452	-2.805087	-8.190994	-26.402174	7.937558	2.150445	0.952893	-0.011630	-0.000000	-0.000000	0.000000
1.760000	-13.903162	-3.524976	-3.803714	32.876181	5.833299	-2.666502	-50.117903	3.729382	8.143009	-3.309778	-8.435817	-23.970456	4.454367	2.179321	0.958503	-0.011652	-0.000000	-0.000000	0.000000
1.770000	-13.560622	-3.869588	-3.903970	32.409751	6.640595	-2.150066	-43.855191	4.422788	5.078569	-3.418267	-8.321249	-21.629189	0.732145	2.209571	0.963301	-0.011492	-0.000000	-0.000000	0.000000
1.780000	-13.260436	-3.909063	-3.977089	31.774238	7.114895	-1.583561	-37.085228	4.928817	2.176529	-3.187426	-7.788828	-19.495033	-3.101404	2.241274	0.967153	-0.011233	-0.000000	-0.000000	0.000000
1.790000	-13.069548	-3.713285	-4.041782	31.092916	7.331422	-1.028530	-29.926992	5.175355	-0.436994	-2.728660	-6.817212	-17.707929	-6.862331	2.274242	0.969994	-0.010986	-0.000000	-0.000000	0.000000
1.800000	-13.037446	-3.378677	-4.114940	30.485339	7.392162	-0.564935	-22.643750	5.136811	-2.640856	-2.177895	-5.435936	-16.407679	-10.313306	2.307809	0.971812	-0.010858	-0.000000	-0.000000	0.000000
1.810000	-13.169407	-3.015609	-4.212449	30.038259	7.410417	-0.281433	-15.688413	4.857208	-4.344973	-1.670718	-3.755744	-15.694285	-13.198726	2.340554	0.972652	-0.010919	-0.000000	-0.000000	0.000000
1.820000	-13.409077	-2.739659	-4.360430	29.784382	7.499748	-0.265111	-9.723247	4.467218	-5.510032	-1.325083	-2.015505	-15.583911	-15.291320	2.370046	0.972616	-0.011193	-0.000000	-0.000000	0.000000
1.830000	-13.637808	-2.663708	-4.609160	29.700965	7.766118	-0.594959	-5.610705	4.171268	-6.152986	-1.233183	-0.616912	-15.981654	-16.411091	2.392697	0.971864	-0.011652	-0.000000	-0.000000	0.000000
